<?xml version="1.0" encoding="UTF-8" standalone="no"?>
<svg
   xmlns:dc="http://purl.org/dc/elements/1.1/"
   xmlns:cc="http://creativecommons.org/ns#"
   xmlns:rdf="http://www.w3.org/1999/02/22-rdf-syntax-ns#"
   xmlns:svg="http://www.w3.org/2000/svg"
   xmlns="http://www.w3.org/2000/svg"
   viewBox="0 0 305.31573 93.031334"
   height="93.031334"
   width="305.31573"
   xml:space="preserve"
   id="svg2"
   version="1.1"><metadata
     id="metadata8"><rdf:RDF><cc:Work
         rdf:about=""><dc:format>image/svg+xml</dc:format><dc:type
           rdf:resource="http://purl.org/dc/dcmitype/StillImage" /></cc:Work></rdf:RDF></metadata><defs
     id="defs6"><clipPath
       id="clipPath14"
       clipPathUnits="userSpaceOnUse"><path
         id="path12"
         d="M -1,-1 H 227.9868 V 68.7735 H -1 Z" /></clipPath></defs><g
     clip-path="url(#clipPath14)"
     transform="matrix(1.3333333,0,0,-1.3333333,1.3333333,91.698)"
     id="g10"><g
       transform="matrix(1.3333333,0,0,-1.3333333,1.3333333,91.698)"
       id="g16"><path
         id="path18"
         style="fill:#1c1b18;fill-opacity:1;fill-rule:evenodd;stroke:#2b2b2a;stroke-width:0.21600001;stroke-linecap:butt;stroke-linejoin:miter;stroke-miterlimit:22.92558479;stroke-dasharray:none;stroke-opacity:1"
         d="m 110.6008,67.6655 c 9.335,0 17.782,-3.7797 23.8861,-9.8832 6.1226,-6.1229 9.902,-14.5698 9.902,-23.8862 0,-9.335 -3.7794,-17.7823 -9.902,-23.8861 -6.1041,-6.1229 -14.5511,-9.902 -23.8861,-9.902 -9.3356,0 -17.7639,3.7791 -23.8864,9.902 -6.1229,6.1038 -9.9023,14.5511 -9.9023,23.8861 0,9.3164 3.7794,17.7633 9.9023,23.8862 6.1225,6.1035 14.5508,9.8832 23.8864,9.8832 z M 120.8239,7.1566 c 0.9638,0.3592 1.9466,0.8124 2.9671,1.3607 1.4173,0.7747 2.8346,1.7005 4.1762,2.6832 1.5685,1.1526 3.0048,2.4001 4.1576,3.5907 1.0015,1.0392 1.7762,2.0406 2.2298,2.91 -1.1339,0.6237 -2.2865,1.1526 -3.4773,1.5684 -1.2093,0.4346 -2.4378,0.7558 -3.7415,1.0015 -1.0394,-3.8358 -2.3054,-6.7085 -3.5149,-8.9005 -1.0018,-1.8142 -1.9843,-3.1748 -2.797,-4.214 z M 86.7331,17.7202 c 0.737,-1.1718 1.7198,-2.3621 2.8536,-3.5336 1.285,-1.3043 2.778,-2.5705 4.3464,-3.7041 1.3039,-0.9448 2.6458,-1.7765 3.9308,-2.4378 0.9258,-0.4722 1.8329,-0.8504 2.6832,-1.1338 -0.3401,0.4348 -0.6803,0.9071 -1.0014,1.3796 v 0.0187 c -1.4551,2.3244 -2.4565,4.2707 -3.3069,6.1795 -0.8127,1.8519 -1.4553,3.6661 -2.1546,5.8201 -1.6441,-0.3588 -2.9101,-0.699 -4.0627,-1.1148 -1.1148,-0.4156 -2.1166,-0.8881 -3.2884,-1.4738 z m 24.8312,4.4408 c -1.9086,0.019 -3.8551,-0.0567 -5.7257,-0.1701 -1.8519,-0.1134 -3.6474,-0.2645 -5.2915,-0.4725 0.6424,-2.1544 2.2111,-5.4423 4.0442,-8.447 1.6628,-2.759 3.5524,-5.2911 5.1211,-6.5007 0.2648,-0.1888 0.4915,-0.3589 0.6803,-0.4722 0.1134,-0.0757 0.1891,-0.1134 0.2268,-0.1324 0.718,0.1134 1.9086,1.3039 3.1558,2.8723 2.1353,2.6456 4.3654,6.2739 4.8946,7.3134 0.5856,1.1336 1.0959,2.2674 1.4737,3.2689 0.3025,0.7747 0.5293,1.493 0.6426,2.06 -1.2849,0.2267 -2.6645,0.3778 -4.1006,0.4912 -1.663,0.1324 -3.3828,0.1891 -5.1213,0.1891 z M 98.8464,33.6127 c 0.019,-0.9825 0.0567,-2.003 0.1323,-3.0048 0.0567,-0.926 0.1511,-1.8331 0.2645,-2.7022 0.3402,0.019 0.737,0.0567 1.1339,0.0944 0.5289,0.0567 1.0581,0.1133 1.5684,0.189 h 0.038 c 0.7747,0.1134 1.5307,0.2078 2.0786,0.2455 6.0662,0.4725 8.8628,0.2081 12.888,-0.1698 h 0.019 c 1.436,-0.1324 3.0424,-0.2834 5.0454,-0.4158 0.1511,1.0581 0.2458,2.0596 0.3024,3.0614 0.0567,1.0962 0.0754,2.1353 0.0567,3.1935 -0.019,1.0395 -0.0756,2.0976 -0.1513,3.1935 -0.0754,1.0018 -0.1888,2.041 -0.3212,3.0994 -10.5069,-1.2472 -11.6028,-1.1528 -18.538,-0.5292 l -0.1514,0.019 c -1.6441,0.1511 -2.7212,0.3211 -3.4583,0.4535 l -0.4535,0.0567 -0.0567,-0.3401 c -0.1321,-1.0205 -0.2455,-2.06 -0.3022,-3.1371 -0.0756,-1.0959 -0.0946,-2.1921 -0.0946,-3.3069 z M 82.4437,26.9229 c 0.1321,-0.7367 0.3212,-1.455 0.5289,-2.1163 0.1701,-0.4913 0.3402,-0.9638 0.567,-1.3984 l 0.6236,0.2835 c 1.5874,0.737 2.91,1.3039 4.2709,1.7952 1.304,0.4535 2.6456,0.8314 4.3084,1.2282 -0.1134,1.1716 -0.2268,2.3431 -0.3211,3.515 -0.0757,1.2472 -0.1324,2.4945 -0.1324,3.7794 0,1.3794 0.0567,2.7777 0.1511,4.1383 0.0756,1.1719 0.208,2.3057 0.3781,3.4019 -1.5874,0.3211 -3.0801,0.7557 -4.5731,1.2849 -1.512,0.548 -3.0048,1.1903 -4.5732,1.9463 -0.9637,-2.192 -1.5117,-4.9887 -1.7385,-7.899 -0.2644,-3.496 -0.0377,-7.1244 0.5103,-9.959 z m 47.5455,15.1557 c -0.5292,-0.1511 -1.0582,-0.2835 -1.6064,-0.4535 0.3025,-2.6269 0.5102,-5.0644 0.5482,-7.5212 0.0377,-2.4188 -0.0947,-4.8376 -0.4348,-7.4455 4.2709,-0.9071 5.934,-1.7385 8.2015,-2.8533 l 0.6803,-0.3402 c 1.1338,3.6471 1.8331,7.162 1.8898,10.658 0.0567,3.5147 -0.5289,7.0299 -1.9842,10.658 -0.5292,-0.2078 -1.1149,-0.4726 -1.7008,-0.737 -0.9825,-0.4346 -1.8519,-0.7937 -2.759,-1.0959 -0.8881,-0.3214 -1.7951,-0.5859 -2.8346,-0.8694 z m -28.2515,7.5212 c -0.2648,-0.6236 -0.4915,-1.2283 -0.6803,-1.7765 -0.1324,-0.3779 -0.2268,-0.756 -0.3212,-1.0962 1.6251,-0.17 3.2315,-0.3021 4.8376,-0.4155 1.7008,-0.1134 3.3826,-0.1891 5.0457,-0.2081 1.6818,0 3.3636,0.038 5.0644,0.1324 1.6254,0.1134 3.2315,0.2835 4.8756,0.5292 -0.1891,0.9825 -0.6237,2.1921 -1.2283,3.515 -0.6803,1.4927 -1.5684,3.1178 -2.5889,4.6862 -1.0017,1.5497 -2.1166,3.0427 -3.2315,4.271 -0.9637,1.0772 -1.9465,1.9463 -2.8533,2.5322 -0.3215,-0.1891 -0.6616,-0.4346 -1.0208,-0.718 -0.3968,-0.3215 -0.8127,-0.7181 -1.2282,-1.1149 l -0.1891,-0.2268 c -0.6803,-0.6803 -1.3606,-1.455 -1.9463,-2.192 -0.6613,-0.8127 -1.2095,-1.5877 -1.6064,-2.2113 -0.3965,-0.6236 -0.9635,-1.6251 -1.5494,-2.7777 -0.4725,-0.9071 -0.9638,-1.9275 -1.3796,-2.929 z m 25.2658,-1.6254 c 1.2095,0.2268 2.4565,0.6049 3.685,1.0395 1.2095,0.4535 2.4001,0.9637 3.496,1.493 -0.5103,0.9258 -1.266,1.8895 -2.1921,2.8533 -1.0771,1.1149 -2.4001,2.2487 -3.8361,3.2882 -1.3606,0.9828 -2.8156,1.8899 -4.2709,2.6646 -1.0772,0.5856 -2.1734,1.0959 -3.2315,1.4927 0.5669,-0.6803 1.0204,-1.3039 1.4363,-1.9463 0.5856,-0.8881 1.0958,-1.8141 1.6818,-2.9103 0.3591,-0.6803 0.6993,-1.3796 1.0394,-2.0976 0.3212,-0.7181 0.6237,-1.4174 0.8881,-2.1164 0.2458,-0.6613 0.4916,-1.3229 0.7183,-1.9842 0.1888,-0.567 0.3779,-1.1716 0.5857,-1.7765 z m -38.2669,4.9323 c -0.4915,-0.5103 -0.9451,-1.0205 -1.3042,-1.4927 -0.2458,-0.3215 -0.4726,-0.6427 -0.6236,-0.9261 0.3211,-0.1701 0.718,-0.3589 1.1528,-0.567 0.5859,-0.2454 1.2473,-0.5102 1.9086,-0.7557 0.775,-0.2647 1.5874,-0.5292 2.3434,-0.737 0.7367,-0.208 1.455,-0.3781 2.0786,-0.5105 0.8504,2.6269 1.8709,4.97 3.0237,7.181 1.0769,2.0599 2.2675,4.0062 3.6091,6.0095 -0.1701,-0.0567 -0.3401,-0.1324 -0.4912,-0.1891 -0.4536,-0.1701 -0.8881,-0.3589 -1.3417,-0.548 -0.9448,-0.4158 -1.8708,-0.907 -2.7399,-1.3983 -1.0018,-0.5669 -1.9279,-1.1528 -2.6836,-1.6818 -0.5859,-0.3971 -1.493,-1.1151 -2.4568,-1.9845 -0.8314,-0.737 -1.7005,-1.5684 -2.4752,-2.3998 z" /><path
         id="path20"
         style="fill:#1c1b18;fill-opacity:1;fill-rule:evenodd;stroke:#2b2b2a;stroke-width:0.21600001;stroke-linecap:butt;stroke-linejoin:miter;stroke-miterlimit:22.92558479;stroke-dasharray:none;stroke-opacity:1"
         d="m 180.2001,48.0878 c -0.4345,-0.0377 -0.8884,-0.0944 -1.3419,-0.1701 -3.6281,-0.6423 -6.0848,-2.4942 -7.6156,-5.0077 -1.8331,-3.0044 -2.3811,-6.9919 -2.0976,-11.0168 0.0377,-0.5293 0.0944,-1.0585 0.1701,-1.5877 0.4725,-3.2312 1.7195,-6.1036 3.723,-8.0878 1.9653,-1.9843 4.7052,-3.1181 8.2012,-2.8724 0.3781,0.0187 0.756,0.0754 1.1529,0.1321 3.4012,0.4915 5.8393,2.3244 7.4077,4.989 1.7572,2.948 2.4375,6.9165 2.1354,11.2249 -0.0567,0.6613 -0.1324,1.3039 -0.2458,1.9276 -0.5292,3.0047 -1.7952,5.7447 -3.7414,7.6722 -1.9276,1.9086 -4.5355,3.0237 -7.748,2.7967 z M 163.4003,31.4016 h -7.3701 l -0.0377,-16.327 v -0.3778 h -0.3781 -4.913 -0.3782 v 0.3778 37.1331 0.3778 h 0.3782 4.913 0.3781 V 52.2077 35.9938 h 7.4265 c 0.5103,8.0881 4.8756,13.3602 10.3181,15.7223 2.2865,0.9828 4.7809,1.455 7.2567,1.3984 2.4942,-0.0567 4.951,-0.6234 7.1997,-1.7572 5.4426,-2.6836 9.6188,-8.485 9.6565,-17.4799 0.019,-5.3858 -1.5494,-10.2611 -4.4407,-13.8141 -2.7403,-3.3446 -6.6708,-5.4612 -11.5841,-5.669 -5.4615,-0.2077 -9.6942,1.3607 -12.7369,4.233 -3.2125,3.0234 -5.0834,7.4642 -5.688,12.7743 z" /><path
         id="path22"
         style="fill:#1c1b18;fill-opacity:1;fill-rule:evenodd;stroke:#2b2b2a;stroke-width:0.21600001;stroke-linecap:butt;stroke-linejoin:miter;stroke-miterlimit:22.92558479;stroke-dasharray:none;stroke-opacity:1"
         d="M 51.5469,47.9367 C 51.1877,47.899 50.8289,47.861 50.4507,47.7856 46.6903,47.1997 43.8934,45.3475 42.1172,42.5889 40.284,39.7165 39.547,35.8424 39.9438,31.3072 c 0.019,-0.2834 0.0567,-0.5859 0.1134,-0.8883 0.4913,-3.3826 2.0033,-6.2927 4.3654,-8.2769 2.3621,-2.0033 5.5559,-3.0614 9.373,-2.7026 0.3022,0.019 0.6047,0.0567 0.9258,0.0947 3.7797,0.5669 6.6141,2.3811 8.4096,5.1401 1.8518,2.8723 2.6265,6.7464 2.192,11.2626 -0.0377,0.3781 -0.0754,0.737 -0.1321,1.0961 -0.5482,3.3826 -2.0599,6.2927 -4.3843,8.2579 -2.3245,1.9656 -5.4803,3.005 -9.2597,2.6459 z m -4.6298,-32.881 c -6.4443,1.9272 -11.8865,7.2564 -12.8313,16.1759 -1.0018,9.5621 3.1748,16.1192 9.0518,19.4074 2.2865,1.3039 4.8564,2.0976 7.4645,2.3811 2.5889,0.2834 5.2535,0.0567 7.7667,-0.6993 6.3873,-1.9086 11.7918,-7.2188 12.7936,-16.1572 1.0581,-9.5999 -3.0994,-16.1382 -8.9575,-19.4451 -2.3054,-1.285 -4.8566,-2.0787 -7.4835,-2.3622 -2.6076,-0.2834 -5.2908,-0.0566 -7.8043,0.6994 z" /><path
         id="path24"
         style="fill:#1c1b18;fill-opacity:1;fill-rule:evenodd;stroke:#2b2b2a;stroke-width:0.21600001;stroke-linecap:butt;stroke-linejoin:miter;stroke-miterlimit:22.92558479;stroke-dasharray:none;stroke-opacity:1"
         d="m 202.0825,47.7289 c -0.1324,0.3212 -0.2648,0.6236 -0.4159,0.8881 l -0.1134,0.2268 0.1701,0.1891 c 1.5874,1.9275 4.7242,3.2691 8.2015,3.7604 2.6266,0.3778 5.4612,0.2835 7.9934,-0.3969 2.5512,-0.6803 4.8189,-1.9652 6.2739,-3.9495 1.1149,-1.5497 1.7575,-3.5149 1.6251,-5.9524 -0.0944,-1.8142 -0.699,-3.4396 -1.5871,-4.7435 -0.8504,-1.266 -1.9655,-2.2488 -3.1751,-2.8344 0.2648,-0.1891 0.567,-0.3969 0.9261,-0.6236 1.8709,-1.2096 4.6675,-3.0424 4.8756,-7.4645 0.0567,-0.9071 0,-1.7762 -0.1134,-2.5889 -0.4725,-3.0991 -2.0976,-5.4992 -4.403,-7.162 -2.2678,-1.6441 -5.2158,-2.5512 -8.3906,-2.7023 -1.3226,-0.0756 -2.7023,0 -4.0816,0.2078 -2.0599,0.3215 -3.7984,0.8694 -5.3481,1.6818 -1.5494,0.7937 -2.9291,1.8519 -4.2897,3.1368 l -0.2268,0.2268 0.1701,0.2648 c 2.3624,3.704 2.5512,3.5716 4.5354,2.2487 0.567,-0.3589 1.285,-0.8314 2.2865,-1.3229 2.4001,-1.1906 5.3101,-1.7195 7.8993,-1.3984 2.3054,0.2645 4.3463,1.2096 5.5366,2.9293 0.6049,0.8504 0.9828,1.8706 1.0962,2.9291 0.1133,1.0202 -0.019,2.0596 -0.4159,3.0234 -0.3968,0.9448 -1.0771,1.8329 -2.0786,2.5322 -1.0392,0.7183 -2.4375,1.2285 -4.214,1.4363 -1.5307,0.1701 -3.1371,0.1511 -4.7055,0.1321 -0.567,0 -1.1336,-0.0187 -1.5117,-0.0187 h -0.3779 v 0.3969 3.8358 0.2835 l 0.2645,0.0757 c 0.6426,0.189 1.5874,0.17 2.7212,0.151 2.3998,-0.0567 5.6313,-0.1321 7.6533,1.7955 0.1891,0.2078 0.3781,0.4156 0.5292,0.6236 0.7937,1.0395 1.1339,2.2677 1.0582,3.458 -0.0757,1.1906 -0.5669,2.3621 -1.3983,3.2315 -0.1701,0.1701 -0.3592,0.3402 -0.548,0.4912 -1.3796,1.0395 -3.3072,1.512 -5.3104,1.4931 -2.1917,0 -4.4595,-0.548 -6.1792,-1.5308 -0.1891,-0.1133 -0.4536,-0.2834 -0.7371,-0.4725 -0.4725,-0.3212 -0.9827,-0.6613 -1.2849,-0.7557 -1.6441,-0.5669 -2.2867,0.8881 -2.91,2.2677 z" /><path
         id="path26"
         style="fill:#1c1b18;fill-opacity:1;fill-rule:evenodd;stroke:#2b2b2a;stroke-width:0.21600001;stroke-linecap:butt;stroke-linejoin:miter;stroke-miterlimit:22.92558479;stroke-dasharray:none;stroke-opacity:1"
         d="m 27.6415,22.6335 c 1.0582,0.6613 2.3054,0.6613 4.0439,-2.1546 l 0.1324,-0.2078 -0.1324,-0.2078 C 30.9484,18.9862 29.5877,17.8146 27.9816,16.8318 26.4699,15.925 24.7311,15.169 23.0494,14.7912 21.443,14.451 19.8746,14.2809 18.3251,14.262 14.0542,14.243 10.1237,15.4902 7.0243,17.8713 3.9064,20.2521 1.6007,23.7674 0.6369,28.2458 0.2968,29.7386 0.1267,31.3639 0.108,33.1024 0.07,40.189 2.3944,45.1587 5.834,48.3715 c 1.7385,1.6061 3.7604,2.7777 5.896,3.5524 2.1351,0.756 4.4028,1.1339 6.6328,1.1339 5.0267,0.0379 9.8833,-1.7385 12.7367,-4.7997 l 0.1703,-0.1703 -0.1136,-0.2268 c -0.2078,-0.5102 -0.4723,-0.8504 -0.7748,-1.2662 -0.1133,-0.1511 -0.2457,-0.3022 -0.3591,-0.4913 -1.3793,-1.9462 -1.9086,-1.6061 -3.458,-0.5856 -0.5859,0.3778 -1.3416,0.8504 -2.4001,1.3416 -1.7575,0.7937 -3.7037,1.1906 -5.669,1.1906 -2.23,-0.019 -4.46,-0.5859 -6.4253,-1.7765 C 10.1237,45.102 8.4606,43.3259 7.3457,40.8694 6.4386,38.8281 5.9094,36.3336 5.9284,33.3482 c 0.019,-3.4396 0.8881,-6.4063 2.4188,-8.7117 1.5307,-2.3244 3.7607,-3.9875 6.4817,-4.7432 1.474,-0.4159 3.2128,-0.567 4.9136,-0.4726 1.6818,0.1134 3.3446,0.4536 4.6298,1.0205 0.3968,0.1701 0.6993,0.3212 0.9638,0.4725 0.2834,0.1321 0.5289,0.3022 0.8314,0.529 0.189,0.1324 0.3968,0.3024 0.6046,0.4915 0.2835,0.2458 0.5669,0.5102 0.8694,0.6993 z" /></g></g></svg>